<svg xmlns="http://www.w3.org/2000/svg" width="16" height="16" viewBox="0 0 16 16">
    <path fill="none" fill-rule="evenodd" stroke="#263238" stroke-linecap="round" stroke-linejoin="round" stroke-width="1.5" d="M5.815 1h4.37c1.386 0 2.08 0 2.826.236a2.933 2.933 0 0 1 1.753 1.753C15 3.735 15 4.43 15 5.815v4.37c0 1.386 0 2.08-.236 2.826a2.933 2.933 0 0 1-1.753 1.753c-.746.236-1.44.236-2.826.236h-4.37c-1.386 0-2.08 0-2.826-.236a2.933 2.933 0 0 1-1.753-1.753C1 12.265 1 11.57 1 10.185v-4.37c0-1.386 0-2.08.236-2.826a2.933 2.933 0 0 1 1.753-1.753C3.735 1 4.43 1 5.815 1"/>
</svg>
