<svg xmlns="http://www.w3.org/2000/svg" width="120" height="23" viewBox="0 0 120 23">
    <g fill="none" fill-rule="nonzero">
        <path fill="#FFF" d="M27.203 5.506h3.483v13.205h-5.24v-3.316h1.757V5.506zm0-2.05h3.483v-1.96h-3.483v1.96zM34.428 5.239h10.478v9.73H34.428v-9.73zm3.698 6.506h3.112V8.462h-3.112v3.283zM47.9 23.201V5.24h3.556v14.666h2.43v3.296zM58.377 3.392h-3.742V1.497h3.742v1.895zM54.635 14.97h3.742V5.375h-3.742v9.594zM61.371 0h3.63v5.174h6.1v12.788h-9.73V0zm3.66 14.728h2.44v-6.35h-2.44v6.35zM85.32 12.275h-3.552v-3.84h-4.09v9.527h-3.584V5.24h11.227zM88.314 17.933V9.86h5.494V8.427h-5.494V5.24h8.982v12.723h-8.982v-.029zm5.523-5.499h-2.325v2.925h2.325v-2.925zM104.78 3.392h-3.742V1.497h3.742v1.895zm-3.742 11.577h3.742V5.375h-3.742v9.594zM119 14.22h-3.583V8.524h-4.09v5.696h-3.553V5.24H119z"/>
        <g fill="#FF5252">
            <path d="M22.246 18.47h-3.545v-6.55h-5.88V5.373h3.516v3.26h2.364v-3.26h3.545zM.06.06h3.515v5.312h5.908v9.959H.06V.06zm3.544 11.951h2.364v-3.35H3.604v3.35z"/>
        </g>
    </g>
</svg>
