<svg xmlns="http://www.w3.org/2000/svg" width="16" height="16" viewBox="0 0 16 16">
    <g fill="none" fill-rule="evenodd">
        <path fill="#263238" fill-rule="nonzero" d="M-736-97H264v293H-736z"/>
        <path fill="#92989B" fill-rule="nonzero" d="M5.926 4.275c1.008 0 1.834.739 1.834 1.633 0 .903-.816 1.632-1.824 1.632h-3.84c-.711 0-1.374.3-1.806.826-.019.019-.029.038-.048.058v-.67c-.01-.418.02-.855.077-1.283.22-1.652.874-3.08 1.795-4.11-.01.049-.01.088-.01.136 0 .982.875 1.778 1.94 1.778h1.882zm0 3.702c.759 0 1.421-.34 1.824-.855v7.947h-.854v-1.583c0-1.234-1.095-2.245-2.448-2.245H2.086C1.078 11.241.26 10.513.26 9.61c0-.35.116-.68.346-.962.346-.417.893-.67 1.479-.67h3.84zm-1.19 2.118a.674.674 0 0 0 0-.962.672.672 0 0 0-.95 0c-.26.262-.26.7 0 .962.258.262.69.262.95 0zm-.279 1.574c1.114 0 2.026.816 2.026 1.817v1.583h-1.22c-1.44 0-2.726-.495-3.619-1.399-.72-.728-1.171-1.69-1.335-2.808a2.338 2.338 0 0 0 1.786.807h2.362zm5.56-7.821a2.34 2.34 0 0 0-1.835.855V.7h2.266c.98.02 1.892.379 2.68 1 .191.234.287.516.287.797 0 .748-.682 1.35-1.517 1.35h-1.882zm3.83 4.129c.586 0 1.133.253 1.498.67.22.282.346.612.346.962 0 .904-.826 1.632-1.834 1.632h-2.362c-1.354 0-2.448 1.01-2.448 2.245v1.583h-.855V7.122c.403.515 1.075.855 1.824.855h3.831zm-.019-5.606c.922 1.02 1.575 2.458 1.795 4.11.058.427.087.855.077 1.282v.67c-.019-.019-.029-.038-.048-.058-.432-.524-1.085-.826-1.805-.826h-3.83c-1.009 0-1.825-.728-1.825-1.632 0-.903.816-1.632 1.824-1.632h1.882c1.066 0 1.94-.797 1.94-1.778 0-.048-.01-.087-.01-.136zm-2.18 4.217c.365 0 .673-.311.673-.68 0-.37-.298-.68-.673-.68a.684.684 0 0 0-.672.68c0 .369.298.68.672.68zM2.815 1.7c.788-.612 1.7-.982 2.67-1.001H7.75v4.003c-.403-.515-1.075-.855-1.824-.855H4.044c-.835 0-1.517-.612-1.517-1.35 0-.292.106-.564.288-.797zm11.032 9.968c.73 0 1.373-.311 1.776-.816-.153 1.127-.614 2.079-1.334 2.808-.903.913-2.228 1.399-3.658 1.399H9.459v-1.584c0-.991.913-1.807 2.026-1.807h2.362z"/>
        <text fill="#FFF" font-family="Metropolis-Medium, Metropolis" font-size="16" font-weight="400" letter-spacing="-.34" transform="translate(-736 -97)">
            <tspan x="540" y="110">github.com/jolibrain</tspan>
        </text>
    </g>
</svg>
